<svg width="22" height="22" viewBox="0 0 22 22" fill="none" xmlns="http://www.w3.org/2000/svg">
<path d="M12.375 21.3125H13.75V19.9375C13.75 19.7552 13.8224 19.5803 13.9514 19.4514C14.0803 19.3224 14.2552 19.25 14.4375 19.25H18.5625C18.7448 19.25 18.9197 19.3224 19.0486 19.4514C19.1776 19.5803 19.25 19.7552 19.25 19.9375V21.3125H20.625V19.9375C20.6245 19.3907 20.407 18.8664 20.0203 18.4797C19.6336 18.093 19.1093 17.8755 18.5625 17.875H14.4375C13.8907 17.8755 13.3664 18.093 12.9797 18.4797C12.593 18.8664 12.3755 19.3907 12.375 19.9375V21.3125ZM16.5 17.1875C15.9561 17.1875 15.4244 17.0262 14.9722 16.724C14.5199 16.4219 14.1675 15.9924 13.9593 15.4899C13.7512 14.9874 13.6967 14.4345 13.8028 13.901C13.9089 13.3676 14.1709 12.8776 14.5555 12.493C14.9401 12.1084 15.4301 11.8465 15.9635 11.7403C16.4969 11.6342 17.0499 11.6887 17.5524 11.8968C18.0549 12.105 18.4844 12.4574 18.7865 12.9097C19.0887 13.3619 19.25 13.8936 19.25 14.4375C19.2493 15.1666 18.9593 15.8657 18.4437 16.3812C17.9282 16.8968 17.2291 17.1868 16.5 17.1875ZM16.5 13.0625C16.2281 13.0625 15.9622 13.1431 15.7361 13.2942C15.51 13.4453 15.3337 13.6601 15.2297 13.9113C15.1256 14.1626 15.0984 14.439 15.1514 14.7058C15.2045 14.9725 15.3354 15.2175 15.5277 15.4098C15.72 15.6021 15.965 15.733 16.2318 15.7861C16.4985 15.8391 16.7749 15.8119 17.0262 15.7078C17.2774 15.6038 17.4922 15.4275 17.6433 15.2014C17.7944 14.9753 17.875 14.7095 17.875 14.4375C17.8745 14.073 17.7294 13.7236 17.4717 13.4658C17.2139 13.2081 16.8645 13.063 16.5 13.0625ZM1.375 21.3125H2.75V19.9375C2.75 19.7552 2.82243 19.5803 2.95136 19.4514C3.0803 19.3224 3.25516 19.25 3.4375 19.25H7.5625C7.74484 19.25 7.9197 19.3224 8.04864 19.4514C8.17757 19.5803 8.25 19.7552 8.25 19.9375V21.3125H9.625V19.9375C9.62445 19.3907 9.40698 18.8664 9.0203 18.4797C8.63363 18.093 8.10934 17.8755 7.5625 17.875H3.4375C2.89066 17.8755 2.36637 18.093 1.9797 18.4797C1.59302 18.8664 1.37555 19.3907 1.375 19.9375V21.3125ZM5.5 17.1875C4.9561 17.1875 4.42442 17.0262 3.97218 16.724C3.51995 16.4219 3.16747 15.9924 2.95933 15.4899C2.75119 14.9874 2.69673 14.4345 2.80284 13.901C2.90895 13.3676 3.17086 12.8776 3.55546 12.493C3.94005 12.1084 4.43005 11.8465 4.9635 11.7403C5.49695 11.6342 6.04988 11.6887 6.55238 11.8968C7.05488 12.105 7.48437 12.4574 7.78654 12.9097C8.08872 13.3619 8.25 13.8936 8.25 14.4375C8.24927 15.1666 7.95931 15.8657 7.44374 16.3812C6.92817 16.8968 6.22912 17.1868 5.5 17.1875ZM5.5 13.0625C5.22805 13.0625 4.96221 13.1431 4.73609 13.2942C4.50997 13.4453 4.33374 13.6601 4.22967 13.9113C4.1256 14.1626 4.09837 14.439 4.15142 14.7058C4.20447 14.9725 4.33543 15.2175 4.52773 15.4098C4.72003 15.6021 4.96503 15.733 5.23175 15.7861C5.49847 15.8391 5.77494 15.8119 6.02619 15.7078C6.27744 15.6038 6.49218 15.4275 6.64327 15.2014C6.79436 14.9753 6.875 14.7095 6.875 14.4375C6.875 14.0728 6.73013 13.7231 6.47227 13.4652C6.21441 13.2074 5.86467 13.0625 5.5 13.0625ZM12.375 11H13.75V9.625C13.75 9.44267 13.8224 9.2678 13.9514 9.13887C14.0803 9.00993 14.2552 8.9375 14.4375 8.9375H18.5625C18.7448 8.9375 18.9197 9.00993 19.0486 9.13887C19.1776 9.2678 19.25 9.44267 19.25 9.625V11H20.625V9.625C20.6245 9.07816 20.407 8.55387 20.0203 8.1672C19.6336 7.78052 19.1093 7.56305 18.5625 7.5625H14.4375C13.8907 7.56305 13.3664 7.78052 12.9797 8.1672C12.593 8.55387 12.3755 9.07816 12.375 9.625V11ZM16.5 6.875C15.9561 6.875 15.4244 6.71372 14.9722 6.41154C14.5199 6.10937 14.1675 5.67988 13.9593 5.17738C13.7512 4.67488 13.6967 4.12195 13.8028 3.5885C13.9089 3.05506 14.1709 2.56505 14.5555 2.18046C14.9401 1.79586 15.4301 1.53395 15.9635 1.42784C16.4969 1.32173 17.0499 1.37619 17.5524 1.58433C18.0549 1.79247 18.4844 2.14495 18.7865 2.59718C19.0887 3.04942 19.25 3.5811 19.25 4.125C19.2493 4.85412 18.9593 5.55317 18.4437 6.06874C17.9282 6.58431 17.2291 6.87427 16.5 6.875ZM16.5 2.75C16.2281 2.75 15.9622 2.83064 15.7361 2.98173C15.51 3.13282 15.3337 3.34756 15.2297 3.59881C15.1256 3.85006 15.0984 4.12653 15.1514 4.39325C15.2045 4.65997 15.3354 4.90498 15.5277 5.09727C15.72 5.28957 15.965 5.42053 16.2318 5.47358C16.4985 5.52664 16.7749 5.49941 17.0262 5.39534C17.2774 5.29127 17.4922 5.11503 17.6433 4.88891C17.7944 4.66279 17.875 4.39695 17.875 4.125C17.875 3.76033 17.7301 3.41059 17.4723 3.15273C17.2144 2.89487 16.8647 2.75 16.5 2.75ZM1.375 11H2.75V9.625C2.75 9.44267 2.82243 9.2678 2.95136 9.13887C3.0803 9.00993 3.25516 8.9375 3.4375 8.9375H7.5625C7.74484 8.9375 7.9197 9.00993 8.04864 9.13887C8.17757 9.2678 8.25 9.44267 8.25 9.625V11H9.625V9.625C9.62445 9.07816 9.40698 8.55387 9.0203 8.1672C8.63363 7.78052 8.10934 7.56305 7.5625 7.5625H3.4375C2.89066 7.56305 2.36637 7.78052 1.9797 8.1672C1.59302 8.55387 1.37555 9.07816 1.375 9.625V11ZM5.5 6.875C4.9561 6.875 4.42442 6.71372 3.97218 6.41154C3.51995 6.10937 3.16747 5.67988 2.95933 5.17738C2.75119 4.67488 2.69673 4.12195 2.80284 3.5885C2.90895 3.05506 3.17086 2.56505 3.55546 2.18046C3.94005 1.79586 4.43005 1.53395 4.9635 1.42784C5.49695 1.32173 6.04988 1.37619 6.55238 1.58433C7.05488 1.79247 7.48437 2.14495 7.78654 2.59718C8.08872 3.04942 8.25 3.5811 8.25 4.125C8.24909 4.85407 7.95907 5.55301 7.44354 6.06854C6.92801 6.58407 6.22907 6.87409 5.5 6.875ZM5.5 2.75C5.22805 2.75 4.96221 2.83064 4.73609 2.98173C4.50997 3.13282 4.33374 3.34756 4.22967 3.59881C4.1256 3.85006 4.09837 4.12653 4.15142 4.39325C4.20447 4.65997 4.33543 4.90498 4.52773 5.09727C4.72003 5.28957 4.96503 5.42053 5.23175 5.47358C5.49847 5.52664 5.77494 5.49941 6.02619 5.39534C6.27744 5.29127 6.49218 5.11503 6.64327 4.88891C6.79436 4.66279 6.875 4.39695 6.875 4.125C6.875 3.76033 6.73013 3.41059 6.47227 3.15273C6.21441 2.89487 5.86467 2.75 5.5 2.75Z" fill="black"/>
</svg>
