<svg width="22" height="22" viewBox="0 0 22 22" fill="none" xmlns="http://www.w3.org/2000/svg">
<path d="M2.75 16.5C3.50939 16.5 4.125 15.8844 4.125 15.125C4.125 14.3656 3.50939 13.75 2.75 13.75C1.99061 13.75 1.375 14.3656 1.375 15.125C1.375 15.8844 1.99061 16.5 2.75 16.5Z" fill="black"/>
<path d="M9.28117 20.6251C8.242 20.6234 7.21812 20.3746 6.29407 19.8992C5.37002 19.4238 4.57231 18.7354 3.9668 17.8909L5.08467 17.0906C5.56256 17.7578 6.19241 18.3016 6.92214 18.6772C7.65186 19.0527 8.4605 19.249 9.28117 19.2501C12.0099 19.2501 14.271 17.1188 14.4285 14.3977L15.8014 14.4775C15.602 17.9246 12.7372 20.6251 9.28117 20.6251Z" fill="black"/>
<path d="M19.25 17.1875C20.0094 17.1875 20.625 16.5719 20.625 15.8125C20.625 15.0531 20.0094 14.4375 19.25 14.4375C18.4906 14.4375 17.875 15.0531 17.875 15.8125C17.875 16.5719 18.4906 17.1875 19.25 17.1875Z" fill="black"/>
<path d="M21.0657 13.1278L19.7429 12.7531C19.8726 12.2946 19.9381 11.8203 19.9375 11.3438C19.9375 8.50096 17.6248 6.18752 14.7812 6.18752C14.049 6.18491 13.3249 6.34039 12.6583 6.64334L12.0917 5.39071C12.9364 5.00719 13.8536 4.81 14.7812 4.81252C18.3824 4.81252 21.3125 7.74265 21.3125 11.3438C21.3125 11.9488 21.23 12.5496 21.0657 13.1278ZM14.0346 10.0272L11.9721 7.96471C11.7129 7.70621 11.3671 7.56252 11 7.56252C10.6329 7.56252 10.2871 7.70552 10.0279 7.9654L7.96538 10.0279C7.69725 10.296 7.5625 10.648 7.5625 11C7.5625 11.352 7.69725 11.704 7.96538 11.9721L10.0279 14.0346C10.2871 14.2945 10.6329 14.4375 11 14.4375C11.3671 14.4375 11.7129 14.2945 11.9721 14.0346L14.0346 11.9721C14.3027 11.704 14.4375 11.352 14.4375 11C14.4375 10.648 14.3027 10.296 14.0346 10.0279M11 13.0625L8.9375 11L11 8.93752L13.0625 11L11 13.0625Z" fill="black"/>
<path d="M11 3.4375C11.7594 3.4375 12.375 2.82189 12.375 2.0625C12.375 1.30311 11.7594 0.6875 11 0.6875C10.2406 0.6875 9.625 1.30311 9.625 2.0625C9.625 2.82189 10.2406 3.4375 11 3.4375Z" fill="black"/>
<path d="M5.51719 13.6689C4.47282 13.112 3.59959 12.2816 2.99103 11.2664C2.38247 10.2513 2.0615 9.08979 2.0625 7.90624C2.0625 4.45017 4.763 1.58605 8.21013 1.38599L8.28988 2.75892C7.16836 2.82588 6.09939 3.25722 5.24547 3.98736C4.39155 4.7175 3.7994 5.70651 3.55905 6.80401C3.31869 7.90151 3.44328 9.04748 3.91388 10.0677C4.38447 11.0879 5.17532 11.9265 6.16619 12.4561L5.51719 13.6689Z" fill="black"/>
</svg>
