<svg width="10" height="6" viewBox="0 0 10 6" fill="none" xmlns="http://www.w3.org/2000/svg">
<path d="M5.00008 3.92512L1.91256 0.837602C1.68475 0.609797 1.31541 0.609797 1.0876 0.837602C0.859797 1.06541 0.859797 1.43475 1.0876 1.66256L4.5876 5.16256C4.81541 5.39037 5.18475 5.39037 5.41256 5.16256L8.91256 1.66256C9.14037 1.43475 9.14037 1.06541 8.91256 0.837602C8.68475 0.609797 8.31541 0.609797 8.0876 0.837602L5.00008 3.92512Z" fill="#646464"/>
<mask id="mask0_136_254" style="mask-type:luminance" maskUnits="userSpaceOnUse" x="0" y="0" width="10" height="6">
<path d="M5.00008 3.92512L1.91256 0.837602C1.68475 0.609797 1.31541 0.609797 1.0876 0.837602C0.859797 1.06541 0.859797 1.43475 1.0876 1.66256L4.5876 5.16256C4.81541 5.39037 5.18475 5.39037 5.41256 5.16256L8.91256 1.66256C9.14037 1.43475 9.14037 1.06541 8.91256 0.837602C8.68475 0.609797 8.31541 0.609797 8.0876 0.837602L5.00008 3.92512Z" fill="white"/>
</mask>
<g mask="url(#mask0_136_254)">
</g>
</svg>
