<svg width="24" height="24" viewBox="0 0 24 24" fill="none" xmlns="http://www.w3.org/2000/svg">
<path d="M5.9984 8.25C5.9984 7.85218 6.15643 7.47064 6.43774 7.18934C6.71904 6.90804 7.10057 6.75 7.4984 6.75H16.4984C16.8962 6.75 17.2778 6.90804 17.5591 7.18934C17.8404 7.47064 17.9984 7.85218 17.9984 8.25V10.5C17.9984 10.8978 17.8404 11.2794 17.5591 11.5607C17.2778 11.842 16.8962 12 16.4984 12H7.4984C7.10057 12 6.71904 11.842 6.43774 11.5607C6.15643 11.2794 5.9984 10.8978 5.9984 10.5V8.25ZM16.4984 8.25H7.4984V10.5H16.4984V8.25ZM14.2484 13.5C13.8506 13.5 13.469 13.658 13.1877 13.9393C12.9064 14.2206 12.7484 14.6022 12.7484 15V16.5C12.7484 16.8978 12.9064 17.2794 13.1877 17.5607C13.469 17.842 13.8506 18 14.2484 18H16.4984C16.8962 18 17.2778 17.842 17.5591 17.5607C17.8404 17.2794 17.9984 16.8978 17.9984 16.5V15C17.9984 14.6022 17.8404 14.2206 17.5591 13.9393C17.2778 13.658 16.8962 13.5 16.4984 13.5H14.2484ZM14.2484 15H16.4984V16.5H14.2484V15ZM5.9984 14.25C5.9984 14.0511 6.07741 13.8603 6.21807 13.7197C6.35872 13.579 6.54948 13.5 6.7484 13.5H10.4984C10.6973 13.5 10.8881 13.579 11.0287 13.7197C11.1694 13.8603 11.2484 14.0511 11.2484 14.25C11.2484 14.4489 11.1694 14.6397 11.0287 14.7803C10.8881 14.921 10.6973 15 10.4984 15H6.7484C6.54948 15 6.35872 14.921 6.21807 14.7803C6.07741 14.6397 5.9984 14.4489 5.9984 14.25ZM6.7484 16.5C6.54948 16.5 6.35872 16.579 6.21807 16.7197C6.07741 16.8603 5.9984 17.0511 5.9984 17.25C5.9984 17.4489 6.07741 17.6397 6.21807 17.7803C6.35872 17.921 6.54948 18 6.7484 18H10.4984C10.6973 18 10.8881 17.921 11.0287 17.7803C11.1694 17.6397 11.2484 17.4489 11.2484 17.25C11.2484 17.0511 11.1694 16.8603 11.0287 16.7197C10.8881 16.579 10.6973 16.5 10.4984 16.5H6.7484ZM6.7439 3C5.74933 3 4.79551 3.39509 4.09225 4.09835C3.38898 4.80161 2.9939 5.75544 2.9939 6.75V17.25C2.9939 18.2446 3.38898 19.1984 4.09225 19.9016C4.79551 20.6049 5.74933 21 6.7439 21H17.2439C18.2385 21 19.1923 20.6049 19.8955 19.9016C20.5988 19.1984 20.9939 18.2446 20.9939 17.25V6.75C20.9939 5.75544 20.5988 4.80161 19.8955 4.09835C19.1923 3.39509 18.2385 3 17.2439 3H6.7439ZM4.4939 6.75C4.4939 6.15326 4.73095 5.58097 5.15291 5.15901C5.57486 4.73705 6.14716 4.5 6.7439 4.5H17.2439C17.8406 4.5 18.4129 4.73705 18.8349 5.15901C19.2568 5.58097 19.4939 6.15326 19.4939 6.75V17.25C19.4939 17.8467 19.2568 18.419 18.8349 18.841C18.4129 19.2629 17.8406 19.5 17.2439 19.5H6.7439C6.14716 19.5 5.57486 19.2629 5.15291 18.841C4.73095 18.419 4.4939 17.8467 4.4939 17.25V6.75Z" fill="white"/>
</svg>
