<svg width="1074" height="281" viewBox="0 0 1074 281" fill="none" xmlns="http://www.w3.org/2000/svg">
<path d="M673.628 278.108C673.06 278.108 672.52 278.024 672.008 277.856C671.496 277.68 671.068 277.436 670.724 277.124L671.156 276.164C671.532 276.468 671.92 276.692 672.32 276.836C672.72 276.98 673.144 277.052 673.592 277.052C674.168 277.052 674.604 276.928 674.9 276.68C675.204 276.432 675.356 276.076 675.356 275.612C675.356 275.148 675.204 274.804 674.9 274.58C674.604 274.356 674.172 274.244 673.604 274.244H672.296V273.2H673.484C673.988 273.2 674.384 273.072 674.672 272.816C674.968 272.56 675.116 272.208 675.116 271.76C675.116 271.352 674.98 271.04 674.708 270.824C674.436 270.6 674.048 270.488 673.544 270.488C672.688 270.488 671.94 270.796 671.3 271.412L670.868 270.464C671.196 270.136 671.604 269.884 672.092 269.708C672.588 269.524 673.104 269.432 673.64 269.432C674.488 269.432 675.148 269.628 675.62 270.02C676.092 270.404 676.328 270.94 676.328 271.628C676.328 272.092 676.208 272.5 675.968 272.852C675.736 273.204 675.412 273.46 674.996 273.62C675.5 273.748 675.888 273.996 676.16 274.364C676.432 274.724 676.568 275.168 676.568 275.696C676.568 276.44 676.304 277.028 675.776 277.46C675.256 277.892 674.54 278.108 673.628 278.108ZM678.207 280.16V272.144H679.395V273.14C679.563 272.804 679.819 272.536 680.163 272.336C680.507 272.136 680.903 272.036 681.351 272.036C681.871 272.036 682.323 272.16 682.707 272.408C683.099 272.656 683.399 273.008 683.607 273.464C683.823 273.912 683.931 274.448 683.931 275.072C683.931 275.696 683.823 276.236 683.607 276.692C683.399 277.148 683.099 277.5 682.707 277.748C682.323 277.988 681.871 278.108 681.351 278.108C680.919 278.108 680.531 278.016 680.187 277.832C679.851 277.64 679.595 277.38 679.419 277.052V280.16H678.207ZM681.051 277.172C681.555 277.172 681.955 276.992 682.251 276.632C682.555 276.272 682.707 275.752 682.707 275.072C682.707 274.392 682.555 273.876 682.251 273.524C681.955 273.164 681.555 272.984 681.051 272.984C680.547 272.984 680.143 273.164 679.839 273.524C679.543 273.876 679.395 274.392 679.395 275.072C679.395 275.752 679.543 276.272 679.839 276.632C680.143 276.992 680.547 277.172 681.051 277.172ZM685.321 278V272.144H686.497V273.092C686.673 272.756 686.917 272.496 687.229 272.312C687.541 272.128 687.905 272.036 688.321 272.036C689.217 272.036 689.797 272.428 690.061 273.212C690.245 272.844 690.509 272.556 690.853 272.348C691.197 272.14 691.589 272.036 692.029 272.036C693.341 272.036 693.997 272.82 693.997 274.388V278H692.785V274.448C692.785 273.952 692.697 273.588 692.521 273.356C692.353 273.124 692.073 273.008 691.681 273.008C691.241 273.008 690.893 273.164 690.637 273.476C690.381 273.78 690.253 274.196 690.253 274.724V278H689.041V274.448C689.041 273.952 688.957 273.588 688.789 273.356C688.621 273.124 688.341 273.008 687.949 273.008C687.509 273.008 687.161 273.164 686.905 273.476C686.657 273.78 686.533 274.196 686.533 274.724V278H685.321Z" fill="#2B3034" fill-opacity="0.4"/>
<path d="M760.528 278V276.284H756.724V275.36L760.744 269.54H761.764V275.24H763V276.284H761.764V278H760.528ZM760.528 275.24V271.484L757.96 275.24H760.528ZM764.207 280.16V272.144H765.395V273.14C765.563 272.804 765.819 272.536 766.163 272.336C766.507 272.136 766.903 272.036 767.351 272.036C767.871 272.036 768.323 272.16 768.707 272.408C769.099 272.656 769.399 273.008 769.607 273.464C769.823 273.912 769.931 274.448 769.931 275.072C769.931 275.696 769.823 276.236 769.607 276.692C769.399 277.148 769.099 277.5 768.707 277.748C768.323 277.988 767.871 278.108 767.351 278.108C766.919 278.108 766.531 278.016 766.187 277.832C765.851 277.64 765.595 277.38 765.419 277.052V280.16H764.207ZM767.051 277.172C767.555 277.172 767.955 276.992 768.251 276.632C768.555 276.272 768.707 275.752 768.707 275.072C768.707 274.392 768.555 273.876 768.251 273.524C767.955 273.164 767.555 272.984 767.051 272.984C766.547 272.984 766.143 273.164 765.839 273.524C765.543 273.876 765.395 274.392 765.395 275.072C765.395 275.752 765.543 276.272 765.839 276.632C766.143 276.992 766.547 277.172 767.051 277.172ZM771.321 278V272.144H772.497V273.092C772.673 272.756 772.917 272.496 773.229 272.312C773.541 272.128 773.905 272.036 774.321 272.036C775.217 272.036 775.797 272.428 776.061 273.212C776.245 272.844 776.509 272.556 776.853 272.348C777.197 272.14 777.589 272.036 778.029 272.036C779.341 272.036 779.997 272.82 779.997 274.388V278H778.785V274.448C778.785 273.952 778.697 273.588 778.521 273.356C778.353 273.124 778.073 273.008 777.681 273.008C777.241 273.008 776.893 273.164 776.637 273.476C776.381 273.78 776.253 274.196 776.253 274.724V278H775.041V274.448C775.041 273.952 774.957 273.588 774.789 273.356C774.621 273.124 774.341 273.008 773.949 273.008C773.509 273.008 773.161 273.164 772.905 273.476C772.657 273.78 772.533 274.196 772.533 274.724V278H771.321Z" fill="#2B3034" fill-opacity="0.4"/>
<path d="M845.892 278.108C845.348 278.108 844.82 278.024 844.308 277.856C843.804 277.68 843.384 277.436 843.048 277.124L843.468 276.164C844.204 276.756 845.004 277.052 845.868 277.052C846.42 277.052 846.852 276.904 847.164 276.608C847.476 276.304 847.632 275.908 847.632 275.42C847.632 274.916 847.484 274.504 847.188 274.184C846.892 273.864 846.48 273.704 845.952 273.704C845.208 273.704 844.612 274.012 844.164 274.628H843.3V269.54H848.34V270.584H844.512V273.26C844.96 272.868 845.528 272.672 846.216 272.672C846.752 272.672 847.216 272.784 847.608 273.008C848 273.232 848.304 273.548 848.52 273.956C848.736 274.356 848.844 274.824 848.844 275.36C848.844 275.904 848.724 276.384 848.484 276.8C848.244 277.208 847.904 277.528 847.464 277.76C847.024 277.992 846.5 278.108 845.892 278.108ZM850.207 280.16V272.144H851.395V273.14C851.563 272.804 851.819 272.536 852.163 272.336C852.507 272.136 852.903 272.036 853.351 272.036C853.871 272.036 854.323 272.16 854.707 272.408C855.099 272.656 855.399 273.008 855.607 273.464C855.823 273.912 855.931 274.448 855.931 275.072C855.931 275.696 855.823 276.236 855.607 276.692C855.399 277.148 855.099 277.5 854.707 277.748C854.323 277.988 853.871 278.108 853.351 278.108C852.919 278.108 852.531 278.016 852.187 277.832C851.851 277.64 851.595 277.38 851.419 277.052V280.16H850.207ZM853.051 277.172C853.555 277.172 853.955 276.992 854.251 276.632C854.555 276.272 854.707 275.752 854.707 275.072C854.707 274.392 854.555 273.876 854.251 273.524C853.955 273.164 853.555 272.984 853.051 272.984C852.547 272.984 852.143 273.164 851.839 273.524C851.543 273.876 851.395 274.392 851.395 275.072C851.395 275.752 851.543 276.272 851.839 276.632C852.143 276.992 852.547 277.172 853.051 277.172ZM857.321 278V272.144H858.497V273.092C858.673 272.756 858.917 272.496 859.229 272.312C859.541 272.128 859.905 272.036 860.321 272.036C861.217 272.036 861.797 272.428 862.061 273.212C862.245 272.844 862.509 272.556 862.853 272.348C863.197 272.14 863.589 272.036 864.029 272.036C865.341 272.036 865.997 272.82 865.997 274.388V278H864.785V274.448C864.785 273.952 864.697 273.588 864.521 273.356C864.353 273.124 864.073 273.008 863.681 273.008C863.241 273.008 862.893 273.164 862.637 273.476C862.381 273.78 862.253 274.196 862.253 274.724V278H861.041V274.448C861.041 273.952 860.957 273.588 860.789 273.356C860.621 273.124 860.341 273.008 859.949 273.008C859.509 273.008 859.161 273.164 858.905 273.476C858.657 273.78 858.533 274.196 858.533 274.724V278H857.321Z" fill="#2B3034" fill-opacity="0.4"/>
<path d="M932.06 278.108C931.036 278.108 930.244 277.744 929.684 277.016C929.132 276.288 928.856 275.268 928.856 273.956C928.856 272.508 929.168 271.392 929.792 270.608C930.416 269.824 931.28 269.432 932.384 269.432C932.816 269.432 933.252 269.52 933.692 269.696C934.132 269.864 934.5 270.104 934.796 270.416L934.364 271.352C934.076 271.064 933.756 270.848 933.404 270.704C933.06 270.56 932.712 270.488 932.36 270.488C931.616 270.488 931.044 270.76 930.644 271.304C930.252 271.84 930.056 272.644 930.056 273.716V274.196C930.216 273.708 930.492 273.328 930.884 273.056C931.284 272.776 931.744 272.636 932.264 272.636C932.76 272.636 933.196 272.752 933.572 272.984C933.956 273.216 934.256 273.536 934.472 273.944C934.688 274.344 934.796 274.804 934.796 275.324C934.796 275.868 934.68 276.352 934.448 276.776C934.216 277.192 933.892 277.52 933.476 277.76C933.068 277.992 932.596 278.108 932.06 278.108ZM931.988 277.1C932.476 277.1 932.872 276.94 933.176 276.62C933.48 276.3 933.632 275.884 933.632 275.372C933.632 274.86 933.48 274.444 933.176 274.124C932.872 273.804 932.476 273.644 931.988 273.644C931.5 273.644 931.104 273.804 930.8 274.124C930.496 274.444 930.344 274.86 930.344 275.372C930.344 275.884 930.496 276.3 930.8 276.62C931.104 276.94 931.5 277.1 931.988 277.1ZM936.207 280.16V272.144H937.395V273.14C937.563 272.804 937.819 272.536 938.163 272.336C938.507 272.136 938.903 272.036 939.351 272.036C939.871 272.036 940.323 272.16 940.707 272.408C941.099 272.656 941.399 273.008 941.607 273.464C941.823 273.912 941.931 274.448 941.931 275.072C941.931 275.696 941.823 276.236 941.607 276.692C941.399 277.148 941.099 277.5 940.707 277.748C940.323 277.988 939.871 278.108 939.351 278.108C938.919 278.108 938.531 278.016 938.187 277.832C937.851 277.64 937.595 277.38 937.419 277.052V280.16H936.207ZM939.051 277.172C939.555 277.172 939.955 276.992 940.251 276.632C940.555 276.272 940.707 275.752 940.707 275.072C940.707 274.392 940.555 273.876 940.251 273.524C939.955 273.164 939.555 272.984 939.051 272.984C938.547 272.984 938.143 273.164 937.839 273.524C937.543 273.876 937.395 274.392 937.395 275.072C937.395 275.752 937.543 276.272 937.839 276.632C938.143 276.992 938.547 277.172 939.051 277.172ZM943.321 278V272.144H944.497V273.092C944.673 272.756 944.917 272.496 945.229 272.312C945.541 272.128 945.905 272.036 946.321 272.036C947.217 272.036 947.797 272.428 948.061 273.212C948.245 272.844 948.509 272.556 948.853 272.348C949.197 272.14 949.589 272.036 950.029 272.036C951.341 272.036 951.997 272.82 951.997 274.388V278H950.785V274.448C950.785 273.952 950.697 273.588 950.521 273.356C950.353 273.124 950.073 273.008 949.681 273.008C949.241 273.008 948.893 273.164 948.637 273.476C948.381 273.78 948.253 274.196 948.253 274.724V278H947.041V274.448C947.041 273.952 946.957 273.588 946.789 273.356C946.621 273.124 946.341 273.008 945.949 273.008C945.509 273.008 945.161 273.164 944.905 273.476C944.657 273.78 944.533 274.196 944.533 274.724V278H943.321Z" fill="#2B3034" fill-opacity="0.4"/>
<path d="M1015.36 278L1019.24 270.584H1014.9V269.54H1020.63V270.464L1016.73 278H1015.36ZM1022.21 280.16V272.144H1023.4V273.14C1023.56 272.804 1023.82 272.536 1024.16 272.336C1024.51 272.136 1024.9 272.036 1025.35 272.036C1025.87 272.036 1026.32 272.16 1026.71 272.408C1027.1 272.656 1027.4 273.008 1027.61 273.464C1027.82 273.912 1027.93 274.448 1027.93 275.072C1027.93 275.696 1027.82 276.236 1027.61 276.692C1027.4 277.148 1027.1 277.5 1026.71 277.748C1026.32 277.988 1025.87 278.108 1025.35 278.108C1024.92 278.108 1024.53 278.016 1024.19 277.832C1023.85 277.64 1023.6 277.38 1023.42 277.052V280.16H1022.21ZM1025.05 277.172C1025.56 277.172 1025.96 276.992 1026.25 276.632C1026.56 276.272 1026.71 275.752 1026.71 275.072C1026.71 274.392 1026.56 273.876 1026.25 273.524C1025.96 273.164 1025.56 272.984 1025.05 272.984C1024.55 272.984 1024.14 273.164 1023.84 273.524C1023.54 273.876 1023.4 274.392 1023.4 275.072C1023.4 275.752 1023.54 276.272 1023.84 276.632C1024.14 276.992 1024.55 277.172 1025.05 277.172ZM1029.32 278V272.144H1030.5V273.092C1030.67 272.756 1030.92 272.496 1031.23 272.312C1031.54 272.128 1031.91 272.036 1032.32 272.036C1033.22 272.036 1033.8 272.428 1034.06 273.212C1034.25 272.844 1034.51 272.556 1034.85 272.348C1035.2 272.14 1035.59 272.036 1036.03 272.036C1037.34 272.036 1038 272.82 1038 274.388V278H1036.79V274.448C1036.79 273.952 1036.7 273.588 1036.52 273.356C1036.35 273.124 1036.07 273.008 1035.68 273.008C1035.24 273.008 1034.89 273.164 1034.64 273.476C1034.38 273.78 1034.25 274.196 1034.25 274.724V278H1033.04V274.448C1033.04 273.952 1032.96 273.588 1032.79 273.356C1032.62 273.124 1032.34 273.008 1031.95 273.008C1031.51 273.008 1031.16 273.164 1030.91 273.476C1030.66 273.78 1030.53 274.196 1030.53 274.724V278H1029.32Z" fill="#2B3034" fill-opacity="0.4"/>
<path d="M75.0824 278.108C74.1144 278.108 73.3584 277.9 72.8144 277.484C72.2784 277.068 72.0104 276.488 72.0104 275.744C72.0104 275.224 72.1464 274.784 72.4184 274.424C72.6984 274.056 73.0624 273.804 73.5104 273.668C73.1104 273.5 72.7944 273.244 72.5624 272.9C72.3304 272.548 72.2144 272.144 72.2144 271.688C72.2144 270.984 72.4744 270.432 72.9944 270.032C73.5144 269.632 74.2104 269.432 75.0824 269.432C75.9624 269.432 76.6624 269.632 77.1824 270.032C77.7024 270.432 77.9624 270.984 77.9624 271.688C77.9624 272.144 77.8424 272.548 77.6024 272.9C77.3704 273.252 77.0544 273.508 76.6544 273.668C77.1104 273.804 77.4744 274.056 77.7464 274.424C78.0184 274.784 78.1544 275.224 78.1544 275.744C78.1544 276.488 77.8824 277.068 77.3384 277.484C76.8024 277.9 76.0504 278.108 75.0824 278.108ZM75.0824 273.224C75.6184 273.224 76.0344 273.1 76.3304 272.852C76.6344 272.596 76.7864 272.248 76.7864 271.808C76.7864 271.376 76.6344 271.036 76.3304 270.788C76.0344 270.54 75.6184 270.416 75.0824 270.416C74.5464 270.416 74.1304 270.54 73.8344 270.788C73.5384 271.036 73.3904 271.376 73.3904 271.808C73.3904 272.248 73.5384 272.596 73.8344 272.852C74.1304 273.1 74.5464 273.224 75.0824 273.224ZM75.0824 277.124C76.3544 277.124 76.9904 276.636 76.9904 275.66C76.9904 274.692 76.3544 274.208 75.0824 274.208C74.4584 274.208 73.9824 274.328 73.6544 274.568C73.3344 274.808 73.1744 275.172 73.1744 275.66C73.1744 276.636 73.8104 277.124 75.0824 277.124ZM81.4017 278.108C80.9937 278.108 80.6297 278.028 80.3097 277.868C79.9897 277.708 79.7337 277.492 79.5417 277.22C79.3577 276.948 79.2657 276.64 79.2657 276.296C79.2657 275.864 79.3737 275.524 79.5897 275.276C79.8137 275.028 80.1777 274.848 80.6817 274.736C81.1937 274.624 81.8817 274.568 82.7457 274.568H83.1537V274.256C83.1537 273.8 83.0577 273.472 82.8657 273.272C82.6737 273.072 82.3577 272.972 81.9177 272.972C81.5817 272.972 81.2457 273.024 80.9097 273.128C80.5737 273.224 80.2297 273.38 79.8777 273.596L79.5057 272.744C79.8097 272.528 80.1897 272.356 80.6457 272.228C81.1017 272.1 81.5377 272.036 81.9537 272.036C82.7537 272.036 83.3457 272.228 83.7297 272.612C84.1137 272.988 84.3057 273.58 84.3057 274.388V278H83.1657V277.028C83.0217 277.364 82.7977 277.628 82.4937 277.82C82.1897 278.012 81.8257 278.108 81.4017 278.108ZM81.6417 277.244C82.0737 277.244 82.4337 277.092 82.7217 276.788C83.0097 276.484 83.1537 276.1 83.1537 275.636V275.312H82.7577C82.1737 275.312 81.7137 275.34 81.3777 275.396C81.0497 275.452 80.8137 275.548 80.6697 275.684C80.5337 275.812 80.4657 275.992 80.4657 276.224C80.4657 276.528 80.5697 276.776 80.7777 276.968C80.9857 277.152 81.2737 277.244 81.6417 277.244ZM85.999 278V272.144H87.175V273.092C87.351 272.756 87.595 272.496 87.907 272.312C88.219 272.128 88.583 272.036 88.999 272.036C89.895 272.036 90.475 272.428 90.739 273.212C90.923 272.844 91.187 272.556 91.531 272.348C91.875 272.14 92.267 272.036 92.707 272.036C94.019 272.036 94.675 272.82 94.675 274.388V278H93.463V274.448C93.463 273.952 93.375 273.588 93.199 273.356C93.031 273.124 92.751 273.008 92.359 273.008C91.919 273.008 91.571 273.164 91.315 273.476C91.059 273.78 90.931 274.196 90.931 274.724V278H89.719V274.448C89.719 273.952 89.635 273.588 89.467 273.356C89.299 273.124 89.019 273.008 88.627 273.008C88.187 273.008 87.839 273.164 87.583 273.476C87.335 273.78 87.211 274.196 87.211 274.724V278H85.999Z" fill="#2B3034" fill-opacity="0.4"/>
<path d="M156.97 278.108C156.53 278.108 156.09 278.02 155.65 277.844C155.218 277.668 154.85 277.428 154.546 277.124L154.978 276.176C155.274 276.464 155.594 276.684 155.938 276.836C156.282 276.98 156.63 277.052 156.982 277.052C157.734 277.052 158.306 276.784 158.698 276.248C159.098 275.704 159.298 274.896 159.298 273.824V273.332C159.138 273.82 158.858 274.204 158.458 274.484C158.066 274.764 157.606 274.904 157.078 274.904C156.59 274.904 156.154 274.788 155.77 274.556C155.386 274.324 155.086 274.008 154.87 273.608C154.654 273.2 154.546 272.736 154.546 272.216C154.546 271.672 154.662 271.192 154.894 270.776C155.126 270.352 155.446 270.024 155.854 269.792C156.27 269.552 156.746 269.432 157.282 269.432C158.306 269.432 159.094 269.796 159.646 270.524C160.206 271.252 160.486 272.272 160.486 273.584C160.486 275.032 160.174 276.148 159.55 276.932C158.934 277.716 158.074 278.108 156.97 278.108ZM157.366 273.884C157.854 273.884 158.25 273.728 158.554 273.416C158.858 273.096 159.01 272.68 159.01 272.168C159.01 271.656 158.858 271.24 158.554 270.92C158.25 270.592 157.854 270.428 157.366 270.428C156.878 270.428 156.482 270.592 156.178 270.92C155.874 271.24 155.722 271.656 155.722 272.168C155.722 272.68 155.874 273.096 156.178 273.416C156.482 273.728 156.878 273.884 157.366 273.884ZM163.902 278.108C163.494 278.108 163.13 278.028 162.81 277.868C162.49 277.708 162.234 277.492 162.042 277.22C161.858 276.948 161.766 276.64 161.766 276.296C161.766 275.864 161.874 275.524 162.09 275.276C162.314 275.028 162.678 274.848 163.182 274.736C163.694 274.624 164.382 274.568 165.246 274.568H165.654V274.256C165.654 273.8 165.558 273.472 165.366 273.272C165.174 273.072 164.858 272.972 164.418 272.972C164.082 272.972 163.746 273.024 163.41 273.128C163.074 273.224 162.73 273.38 162.378 273.596L162.006 272.744C162.31 272.528 162.69 272.356 163.146 272.228C163.602 272.1 164.038 272.036 164.454 272.036C165.254 272.036 165.846 272.228 166.23 272.612C166.614 272.988 166.806 273.58 166.806 274.388V278H165.666V277.028C165.522 277.364 165.298 277.628 164.994 277.82C164.69 278.012 164.326 278.108 163.902 278.108ZM164.142 277.244C164.574 277.244 164.934 277.092 165.222 276.788C165.51 276.484 165.654 276.1 165.654 275.636V275.312H165.258C164.674 275.312 164.214 275.34 163.878 275.396C163.55 275.452 163.314 275.548 163.17 275.684C163.034 275.812 162.966 275.992 162.966 276.224C162.966 276.528 163.07 276.776 163.278 276.968C163.486 277.152 163.774 277.244 164.142 277.244ZM168.499 278V272.144H169.675V273.092C169.851 272.756 170.095 272.496 170.407 272.312C170.719 272.128 171.083 272.036 171.499 272.036C172.395 272.036 172.975 272.428 173.239 273.212C173.423 272.844 173.687 272.556 174.031 272.348C174.375 272.14 174.767 272.036 175.207 272.036C176.519 272.036 177.175 272.82 177.175 274.388V278H175.963V274.448C175.963 273.952 175.875 273.588 175.699 273.356C175.531 273.124 175.251 273.008 174.859 273.008C174.419 273.008 174.071 273.164 173.815 273.476C173.559 273.78 173.431 274.196 173.431 274.724V278H172.219V274.448C172.219 273.952 172.135 273.588 171.967 273.356C171.799 273.124 171.519 273.008 171.127 273.008C170.687 273.008 170.339 273.164 170.083 273.476C169.835 273.78 169.711 274.196 169.711 274.724V278H168.499Z" fill="#2B3034" fill-opacity="0.4"/>
<path d="M237.289 278V276.956H239.209V270.98L237.709 271.916L237.205 270.992L239.569 269.54H240.445V276.956H242.245V278H237.289ZM246.68 278.108C245.696 278.108 244.944 277.736 244.424 276.992C243.912 276.24 243.656 275.164 243.656 273.764C243.656 272.34 243.912 271.264 244.424 270.536C244.944 269.8 245.696 269.432 246.68 269.432C247.672 269.432 248.424 269.8 248.936 270.536C249.448 271.264 249.704 272.336 249.704 273.752C249.704 275.16 249.444 276.24 248.924 276.992C248.412 277.736 247.664 278.108 246.68 278.108ZM246.68 277.076C247.288 277.076 247.74 276.808 248.036 276.272C248.332 275.736 248.48 274.896 248.48 273.752C248.48 272.608 248.332 271.776 248.036 271.256C247.748 270.728 247.296 270.464 246.68 270.464C246.072 270.464 245.62 270.728 245.324 271.256C245.028 271.784 244.88 272.616 244.88 273.752C244.88 274.896 245.028 275.736 245.324 276.272C245.62 276.808 246.072 277.076 246.68 277.076ZM252.999 278.108C252.591 278.108 252.227 278.028 251.907 277.868C251.587 277.708 251.331 277.492 251.139 277.22C250.955 276.948 250.863 276.64 250.863 276.296C250.863 275.864 250.971 275.524 251.187 275.276C251.411 275.028 251.775 274.848 252.279 274.736C252.791 274.624 253.479 274.568 254.343 274.568H254.751V274.256C254.751 273.8 254.655 273.472 254.463 273.272C254.271 273.072 253.955 272.972 253.515 272.972C253.179 272.972 252.843 273.024 252.507 273.128C252.171 273.224 251.827 273.38 251.475 273.596L251.103 272.744C251.407 272.528 251.787 272.356 252.243 272.228C252.699 272.1 253.135 272.036 253.551 272.036C254.351 272.036 254.943 272.228 255.327 272.612C255.711 272.988 255.903 273.58 255.903 274.388V278H254.763V277.028C254.619 277.364 254.395 277.628 254.091 277.82C253.787 278.012 253.423 278.108 252.999 278.108ZM253.239 277.244C253.671 277.244 254.031 277.092 254.319 276.788C254.607 276.484 254.751 276.1 254.751 275.636V275.312H254.355C253.771 275.312 253.311 275.34 252.975 275.396C252.647 275.452 252.411 275.548 252.267 275.684C252.131 275.812 252.063 275.992 252.063 276.224C252.063 276.528 252.167 276.776 252.375 276.968C252.583 277.152 252.871 277.244 253.239 277.244ZM257.597 278V272.144H258.773V273.092C258.949 272.756 259.193 272.496 259.505 272.312C259.817 272.128 260.181 272.036 260.597 272.036C261.493 272.036 262.073 272.428 262.337 273.212C262.521 272.844 262.785 272.556 263.129 272.348C263.473 272.14 263.865 272.036 264.305 272.036C265.617 272.036 266.273 272.82 266.273 274.388V278H265.061V274.448C265.061 273.952 264.973 273.588 264.797 273.356C264.629 273.124 264.349 273.008 263.957 273.008C263.517 273.008 263.169 273.164 262.913 273.476C262.657 273.78 262.529 274.196 262.529 274.724V278H261.317V274.448C261.317 273.952 261.233 273.588 261.065 273.356C260.897 273.124 260.617 273.008 260.225 273.008C259.785 273.008 259.437 273.164 259.181 273.476C258.933 273.78 258.809 274.196 258.809 274.724V278H257.597Z" fill="#2B3034" fill-opacity="0.4"/>
<path d="M323.289 278V276.956H325.209V270.98L323.709 271.916L323.205 270.992L325.569 269.54H326.445V276.956H328.245V278H323.289ZM330.484 278V276.956H332.404V270.98L330.904 271.916L330.4 270.992L332.764 269.54H333.64V276.956H335.44V278H330.484ZM338.999 278.108C338.591 278.108 338.227 278.028 337.907 277.868C337.587 277.708 337.331 277.492 337.139 277.22C336.955 276.948 336.863 276.64 336.863 276.296C336.863 275.864 336.971 275.524 337.187 275.276C337.411 275.028 337.775 274.848 338.279 274.736C338.791 274.624 339.479 274.568 340.343 274.568H340.751V274.256C340.751 273.8 340.655 273.472 340.463 273.272C340.271 273.072 339.955 272.972 339.515 272.972C339.179 272.972 338.843 273.024 338.507 273.128C338.171 273.224 337.827 273.38 337.475 273.596L337.103 272.744C337.407 272.528 337.787 272.356 338.243 272.228C338.699 272.1 339.135 272.036 339.551 272.036C340.351 272.036 340.943 272.228 341.327 272.612C341.711 272.988 341.903 273.58 341.903 274.388V278H340.763V277.028C340.619 277.364 340.395 277.628 340.091 277.82C339.787 278.012 339.423 278.108 338.999 278.108ZM339.239 277.244C339.671 277.244 340.031 277.092 340.319 276.788C340.607 276.484 340.751 276.1 340.751 275.636V275.312H340.355C339.771 275.312 339.311 275.34 338.975 275.396C338.647 275.452 338.411 275.548 338.267 275.684C338.131 275.812 338.063 275.992 338.063 276.224C338.063 276.528 338.167 276.776 338.375 276.968C338.583 277.152 338.871 277.244 339.239 277.244ZM343.597 278V272.144H344.773V273.092C344.949 272.756 345.193 272.496 345.505 272.312C345.817 272.128 346.181 272.036 346.597 272.036C347.493 272.036 348.073 272.428 348.337 273.212C348.521 272.844 348.785 272.556 349.129 272.348C349.473 272.14 349.865 272.036 350.305 272.036C351.617 272.036 352.273 272.82 352.273 274.388V278H351.061V274.448C351.061 273.952 350.973 273.588 350.797 273.356C350.629 273.124 350.349 273.008 349.957 273.008C349.517 273.008 349.169 273.164 348.913 273.476C348.657 273.78 348.529 274.196 348.529 274.724V278H347.317V274.448C347.317 273.952 347.233 273.588 347.065 273.356C346.897 273.124 346.617 273.008 346.225 273.008C345.785 273.008 345.437 273.164 345.181 273.476C344.933 273.78 344.809 274.196 344.809 274.724V278H343.597Z" fill="#2B3034" fill-opacity="0.4"/>
<path d="M408.967 278V276.956H410.887V270.98L409.387 271.916L408.883 270.992L411.247 269.54H412.123V276.956H413.923V278H408.967ZM415.778 278V277.076L418.598 274.052C418.99 273.628 419.27 273.244 419.438 272.9C419.614 272.556 419.702 272.208 419.702 271.856C419.702 270.944 419.166 270.488 418.094 270.488C417.278 270.488 416.546 270.796 415.898 271.412L415.454 270.464C415.774 270.152 416.182 269.904 416.678 269.72C417.174 269.528 417.69 269.432 418.226 269.432C419.098 269.432 419.766 269.632 420.23 270.032C420.702 270.432 420.938 271.004 420.938 271.748C420.938 272.252 420.814 272.744 420.566 273.224C420.326 273.704 419.946 274.216 419.426 274.76L417.338 276.956H421.274V278H415.778ZM422.805 280.16V272.144H423.993V273.14C424.161 272.804 424.417 272.536 424.761 272.336C425.105 272.136 425.501 272.036 425.949 272.036C426.469 272.036 426.921 272.16 427.305 272.408C427.697 272.656 427.997 273.008 428.205 273.464C428.421 273.912 428.529 274.448 428.529 275.072C428.529 275.696 428.421 276.236 428.205 276.692C427.997 277.148 427.697 277.5 427.305 277.748C426.921 277.988 426.469 278.108 425.949 278.108C425.517 278.108 425.129 278.016 424.785 277.832C424.449 277.64 424.193 277.38 424.017 277.052V280.16H422.805ZM425.649 277.172C426.153 277.172 426.553 276.992 426.849 276.632C427.153 276.272 427.305 275.752 427.305 275.072C427.305 274.392 427.153 273.876 426.849 273.524C426.553 273.164 426.153 272.984 425.649 272.984C425.145 272.984 424.741 273.164 424.437 273.524C424.141 273.876 423.993 274.392 423.993 275.072C423.993 275.752 424.141 276.272 424.437 276.632C424.741 276.992 425.145 277.172 425.649 277.172ZM429.919 278V272.144H431.095V273.092C431.271 272.756 431.515 272.496 431.827 272.312C432.139 272.128 432.503 272.036 432.919 272.036C433.815 272.036 434.395 272.428 434.659 273.212C434.843 272.844 435.107 272.556 435.451 272.348C435.795 272.14 436.187 272.036 436.627 272.036C437.939 272.036 438.595 272.82 438.595 274.388V278H437.383V274.448C437.383 273.952 437.295 273.588 437.119 273.356C436.951 273.124 436.671 273.008 436.279 273.008C435.839 273.008 435.491 273.164 435.235 273.476C434.979 273.78 434.851 274.196 434.851 274.724V278H433.639V274.448C433.639 273.952 433.555 273.588 433.387 273.356C433.219 273.124 432.939 273.008 432.547 273.008C432.107 273.008 431.759 273.164 431.503 273.476C431.255 273.78 431.131 274.196 431.131 274.724V278H429.919Z" fill="#2B3034" fill-opacity="0.4"/>
<path d="M585.18 278V277.076L588 274.052C588.392 273.628 588.672 273.244 588.84 272.9C589.016 272.556 589.104 272.208 589.104 271.856C589.104 270.944 588.568 270.488 587.496 270.488C586.68 270.488 585.948 270.796 585.3 271.412L584.856 270.464C585.176 270.152 585.584 269.904 586.08 269.72C586.576 269.528 587.092 269.432 587.628 269.432C588.5 269.432 589.168 269.632 589.632 270.032C590.104 270.432 590.34 271.004 590.34 271.748C590.34 272.252 590.216 272.744 589.968 273.224C589.728 273.704 589.348 274.216 588.828 274.76L586.74 276.956H590.676V278H585.18ZM592.207 280.16V272.144H593.395V273.14C593.563 272.804 593.819 272.536 594.163 272.336C594.507 272.136 594.903 272.036 595.351 272.036C595.871 272.036 596.323 272.16 596.707 272.408C597.099 272.656 597.399 273.008 597.607 273.464C597.823 273.912 597.931 274.448 597.931 275.072C597.931 275.696 597.823 276.236 597.607 276.692C597.399 277.148 597.099 277.5 596.707 277.748C596.323 277.988 595.871 278.108 595.351 278.108C594.919 278.108 594.531 278.016 594.187 277.832C593.851 277.64 593.595 277.38 593.419 277.052V280.16H592.207ZM595.051 277.172C595.555 277.172 595.955 276.992 596.251 276.632C596.555 276.272 596.707 275.752 596.707 275.072C596.707 274.392 596.555 273.876 596.251 273.524C595.955 273.164 595.555 272.984 595.051 272.984C594.547 272.984 594.143 273.164 593.839 273.524C593.543 273.876 593.395 274.392 593.395 275.072C593.395 275.752 593.543 276.272 593.839 276.632C594.143 276.992 594.547 277.172 595.051 277.172ZM599.321 278V272.144H600.497V273.092C600.673 272.756 600.917 272.496 601.229 272.312C601.541 272.128 601.905 272.036 602.321 272.036C603.217 272.036 603.797 272.428 604.061 273.212C604.245 272.844 604.509 272.556 604.853 272.348C605.197 272.14 605.589 272.036 606.029 272.036C607.341 272.036 607.997 272.82 607.997 274.388V278H606.785V274.448C606.785 273.952 606.697 273.588 606.521 273.356C606.353 273.124 606.073 273.008 605.681 273.008C605.241 273.008 604.893 273.164 604.637 273.476C604.381 273.78 604.253 274.196 604.253 274.724V278H603.041V274.448C603.041 273.952 602.957 273.588 602.789 273.356C602.621 273.124 602.341 273.008 601.949 273.008C601.509 273.008 601.161 273.164 600.905 273.476C600.657 273.78 600.533 274.196 600.533 274.724V278H599.321Z" fill="#2B3034" fill-opacity="0.4"/>
<path d="M499.064 278V276.956H500.984V270.98L499.484 271.916L498.98 270.992L501.344 269.54H502.22V276.956H504.02V278H499.064ZM505.707 280.16V272.144H506.895V273.14C507.063 272.804 507.319 272.536 507.663 272.336C508.007 272.136 508.403 272.036 508.851 272.036C509.371 272.036 509.823 272.16 510.207 272.408C510.599 272.656 510.899 273.008 511.107 273.464C511.323 273.912 511.431 274.448 511.431 275.072C511.431 275.696 511.323 276.236 511.107 276.692C510.899 277.148 510.599 277.5 510.207 277.748C509.823 277.988 509.371 278.108 508.851 278.108C508.419 278.108 508.031 278.016 507.687 277.832C507.351 277.64 507.095 277.38 506.919 277.052V280.16H505.707ZM508.551 277.172C509.055 277.172 509.455 276.992 509.751 276.632C510.055 276.272 510.207 275.752 510.207 275.072C510.207 274.392 510.055 273.876 509.751 273.524C509.455 273.164 509.055 272.984 508.551 272.984C508.047 272.984 507.643 273.164 507.339 273.524C507.043 273.876 506.895 274.392 506.895 275.072C506.895 275.752 507.043 276.272 507.339 276.632C507.643 276.992 508.047 277.172 508.551 277.172ZM512.821 278V272.144H513.997V273.092C514.173 272.756 514.417 272.496 514.729 272.312C515.041 272.128 515.405 272.036 515.821 272.036C516.717 272.036 517.297 272.428 517.561 273.212C517.745 272.844 518.009 272.556 518.353 272.348C518.697 272.14 519.089 272.036 519.529 272.036C520.841 272.036 521.497 272.82 521.497 274.388V278H520.285V274.448C520.285 273.952 520.197 273.588 520.021 273.356C519.853 273.124 519.573 273.008 519.181 273.008C518.741 273.008 518.393 273.164 518.137 273.476C517.881 273.78 517.753 274.196 517.753 274.724V278H516.541V274.448C516.541 273.952 516.457 273.588 516.289 273.356C516.121 273.124 515.841 273.008 515.449 273.008C515.009 273.008 514.661 273.164 514.405 273.476C514.157 273.78 514.033 274.196 514.033 274.724V278H512.821Z" fill="#2B3034" fill-opacity="0.4"/>
<path d="M3.6 245.108C2.616 245.108 1.864 244.736 1.344 243.992C0.832 243.24 0.576 242.164 0.576 240.764C0.576 239.34 0.832 238.264 1.344 237.536C1.864 236.8 2.616 236.432 3.6 236.432C4.592 236.432 5.344 236.8 5.856 237.536C6.368 238.264 6.624 239.336 6.624 240.752C6.624 242.16 6.364 243.24 5.844 243.992C5.332 244.736 4.584 245.108 3.6 245.108ZM3.6 244.076C4.208 244.076 4.66 243.808 4.956 243.272C5.252 242.736 5.4 241.896 5.4 240.752C5.4 239.608 5.252 238.776 4.956 238.256C4.668 237.728 4.216 237.464 3.6 237.464C2.992 237.464 2.54 237.728 2.244 238.256C1.948 238.784 1.8 239.616 1.8 240.752C1.8 241.896 1.948 242.736 2.244 243.272C2.54 243.808 2.992 244.076 3.6 244.076Z" fill="#2B3034" fill-opacity="0.4"/>
<g opacity="0.7">
<path fill-rule="evenodd" clip-rule="evenodd" d="M76 241.5H1073.16H76Z" fill="white"/>
<path d="M76 241.5H1073.16" stroke="#EAEAEA" stroke-linecap="square"/>
<path fill-rule="evenodd" clip-rule="evenodd" d="M76 182.5H1073.16H76Z" fill="white"/>
<path d="M76 182.5H1073.16" stroke="#EAEAEA" stroke-linecap="square"/>
<path fill-rule="evenodd" clip-rule="evenodd" d="M76 123.5H1073.16H76Z" fill="white"/>
<path d="M76 123.5H1073.16" stroke="#EAEAEA" stroke-linecap="square"/>
<path fill-rule="evenodd" clip-rule="evenodd" d="M76 64.5H1073.16H76Z" fill="white"/>
<path d="M76 64.5H1073.16" stroke="#EAEAEA" stroke-linecap="square"/>
<path fill-rule="evenodd" clip-rule="evenodd" d="M76 5.5H1073.16H76Z" fill="white"/>
<path d="M76 5.5H1073.16" stroke="#EAEAEA" stroke-linecap="square"/>
</g>
<path d="M1.02 186V185.076L3.84 182.052C4.232 181.628 4.512 181.244 4.68 180.9C4.856 180.556 4.944 180.208 4.944 179.856C4.944 178.944 4.408 178.488 3.336 178.488C2.52 178.488 1.788 178.796 1.14 179.412L0.696 178.464C1.016 178.152 1.424 177.904 1.92 177.72C2.416 177.528 2.932 177.432 3.468 177.432C4.34 177.432 5.008 177.632 5.472 178.032C5.944 178.432 6.18 179.004 6.18 179.748C6.18 180.252 6.056 180.744 5.808 181.224C5.568 181.704 5.188 182.216 4.668 182.76L2.58 184.956H6.516V186H1.02ZM10.7953 186.108C9.81131 186.108 9.05931 185.736 8.53931 184.992C8.02731 184.24 7.77131 183.164 7.77131 181.764C7.77131 180.34 8.02731 179.264 8.53931 178.536C9.05931 177.8 9.81131 177.432 10.7953 177.432C11.7873 177.432 12.5393 177.8 13.0513 178.536C13.5633 179.264 13.8193 180.336 13.8193 181.752C13.8193 183.16 13.5593 184.24 13.0393 184.992C12.5273 185.736 11.7793 186.108 10.7953 186.108ZM10.7953 185.076C11.4033 185.076 11.8553 184.808 12.1513 184.272C12.4473 183.736 12.5953 182.896 12.5953 181.752C12.5953 180.608 12.4473 179.776 12.1513 179.256C11.8633 178.728 11.4113 178.464 10.7953 178.464C10.1873 178.464 9.73531 178.728 9.43931 179.256C9.14331 179.784 8.99531 180.616 8.99531 181.752C8.99531 182.896 9.14331 183.736 9.43931 184.272C9.73531 184.808 10.1873 185.076 10.7953 185.076Z" fill="#2B3034" fill-opacity="0.4"/>
<path d="M4.368 127V125.284H0.564V124.36L4.584 118.54H5.604V124.24H6.84V125.284H5.604V127H4.368ZM4.368 124.24V120.484L1.8 124.24H4.368ZM10.7953 127.108C9.81131 127.108 9.05931 126.736 8.53931 125.992C8.02731 125.24 7.77131 124.164 7.77131 122.764C7.77131 121.34 8.02731 120.264 8.53931 119.536C9.05931 118.8 9.81131 118.432 10.7953 118.432C11.7873 118.432 12.5393 118.8 13.0513 119.536C13.5633 120.264 13.8193 121.336 13.8193 122.752C13.8193 124.16 13.5593 125.24 13.0393 125.992C12.5273 126.736 11.7793 127.108 10.7953 127.108ZM10.7953 126.076C11.4033 126.076 11.8553 125.808 12.1513 125.272C12.4473 124.736 12.5953 123.896 12.5953 122.752C12.5953 121.608 12.4473 120.776 12.1513 120.256C11.8633 119.728 11.4113 119.464 10.7953 119.464C10.1873 119.464 9.73531 119.728 9.43931 120.256C9.14331 120.784 8.99531 121.616 8.99531 122.752C8.99531 123.896 9.14331 124.736 9.43931 125.272C9.73531 125.808 10.1873 126.076 10.7953 126.076Z" fill="#2B3034" fill-opacity="0.4"/>
<path d="M3.9 68.108C2.876 68.108 2.084 67.744 1.524 67.016C0.972 66.288 0.696 65.268 0.696 63.956C0.696 62.508 1.008 61.392 1.632 60.608C2.256 59.824 3.12 59.432 4.224 59.432C4.656 59.432 5.092 59.52 5.532 59.696C5.972 59.864 6.34 60.104 6.636 60.416L6.204 61.352C5.916 61.064 5.596 60.848 5.244 60.704C4.9 60.56 4.552 60.488 4.2 60.488C3.456 60.488 2.884 60.76 2.484 61.304C2.092 61.84 1.896 62.644 1.896 63.716V64.196C2.056 63.708 2.332 63.328 2.724 63.056C3.124 62.776 3.584 62.636 4.104 62.636C4.6 62.636 5.036 62.752 5.412 62.984C5.796 63.216 6.096 63.536 6.312 63.944C6.528 64.344 6.636 64.804 6.636 65.324C6.636 65.868 6.52 66.352 6.288 66.776C6.056 67.192 5.732 67.52 5.316 67.76C4.908 67.992 4.436 68.108 3.9 68.108ZM3.828 67.1C4.316 67.1 4.712 66.94 5.016 66.62C5.32 66.3 5.472 65.884 5.472 65.372C5.472 64.86 5.32 64.444 5.016 64.124C4.712 63.804 4.316 63.644 3.828 63.644C3.34 63.644 2.944 63.804 2.64 64.124C2.336 64.444 2.184 64.86 2.184 65.372C2.184 65.884 2.336 66.3 2.64 66.62C2.944 66.94 3.34 67.1 3.828 67.1ZM10.7953 68.108C9.81131 68.108 9.05931 67.736 8.53931 66.992C8.02731 66.24 7.77131 65.164 7.77131 63.764C7.77131 62.34 8.02731 61.264 8.53931 60.536C9.05931 59.8 9.81131 59.432 10.7953 59.432C11.7873 59.432 12.5393 59.8 13.0513 60.536C13.5633 61.264 13.8193 62.336 13.8193 63.752C13.8193 65.16 13.5593 66.24 13.0393 66.992C12.5273 67.736 11.7793 68.108 10.7953 68.108ZM10.7953 67.076C11.4033 67.076 11.8553 66.808 12.1513 66.272C12.4473 65.736 12.5953 64.896 12.5953 63.752C12.5953 62.608 12.4473 61.776 12.1513 61.256C11.8633 60.728 11.4113 60.464 10.7953 60.464C10.1873 60.464 9.73531 60.728 9.43931 61.256C9.14331 61.784 8.99531 62.616 8.99531 63.752C8.99531 64.896 9.14331 65.736 9.43931 66.272C9.73531 66.808 10.1873 67.076 10.7953 67.076Z" fill="#2B3034" fill-opacity="0.4"/>
<path d="M3.6 9.108C2.632 9.108 1.876 8.9 1.332 8.484C0.796 8.068 0.528 7.488 0.528 6.744C0.528 6.224 0.664 5.784 0.936 5.424C1.216 5.056 1.58 4.804 2.028 4.668C1.628 4.5 1.312 4.244 1.08 3.9C0.848 3.548 0.732 3.144 0.732 2.688C0.732 1.984 0.992 1.432 1.512 1.032C2.032 0.631999 2.728 0.431999 3.6 0.431999C4.48 0.431999 5.18 0.631999 5.7 1.032C6.22 1.432 6.48 1.984 6.48 2.688C6.48 3.144 6.36 3.548 6.12 3.9C5.888 4.252 5.572 4.508 5.172 4.668C5.628 4.804 5.992 5.056 6.264 5.424C6.536 5.784 6.672 6.224 6.672 6.744C6.672 7.488 6.4 8.068 5.856 8.484C5.32 8.9 4.568 9.108 3.6 9.108ZM3.6 4.224C4.136 4.224 4.552 4.1 4.848 3.852C5.152 3.596 5.304 3.248 5.304 2.808C5.304 2.376 5.152 2.036 4.848 1.788C4.552 1.54 4.136 1.416 3.6 1.416C3.064 1.416 2.648 1.54 2.352 1.788C2.056 2.036 1.908 2.376 1.908 2.808C1.908 3.248 2.056 3.596 2.352 3.852C2.648 4.1 3.064 4.224 3.6 4.224ZM3.6 8.124C4.872 8.124 5.508 7.636 5.508 6.66C5.508 5.692 4.872 5.208 3.6 5.208C2.976 5.208 2.5 5.328 2.172 5.568C1.852 5.808 1.692 6.172 1.692 6.66C1.692 7.636 2.328 8.124 3.6 8.124ZM10.7953 9.108C9.81131 9.108 9.05931 8.736 8.53931 7.992C8.02731 7.24 7.77131 6.164 7.77131 4.764C7.77131 3.34 8.02731 2.264 8.53931 1.536C9.05931 0.799999 9.81131 0.431999 10.7953 0.431999C11.7873 0.431999 12.5393 0.799999 13.0513 1.536C13.5633 2.264 13.8193 3.336 13.8193 4.752C13.8193 6.16 13.5593 7.24 13.0393 7.992C12.5273 8.736 11.7793 9.108 10.7953 9.108ZM10.7953 8.076C11.4033 8.076 11.8553 7.808 12.1513 7.272C12.4473 6.736 12.5953 5.896 12.5953 4.752C12.5953 3.608 12.4473 2.776 12.1513 2.256C11.8633 1.728 11.4113 1.464 10.7953 1.464C10.1873 1.464 9.73531 1.728 9.43931 2.256C9.14331 2.784 8.99531 3.616 8.99531 4.752C8.99531 5.896 9.14331 6.736 9.43931 7.272C9.73531 7.808 10.1873 8.076 10.7953 8.076Z" fill="#2B3034" fill-opacity="0.4"/>
<path fill-rule="evenodd" clip-rule="evenodd" d="M76 245L82.3169 223.386L104.463 222.457L119.943 214.35L136.126 213.905L147.92 201.984L158.293 170.994L164.942 159.906L182.701 183.034L197.144 186.554L207.712 179.839L220.463 150.241L257.024 210.253L272.076 184.406L289.334 197.38L298.636 177.599L300.45 168.109L314.459 158.417L321.694 145.246L329.69 163.644L328.367 175.724L335.743 177.511L341.467 172.133L356.404 50.6433L370.309 198.636L382.692 182.723V173.635L393.276 164.244L398.232 157.045L407.352 146.22L429.034 157.508L439.827 163.644L448.54 159.672L463.737 177.524L485.843 142.438L492.31 161.571L506.171 174.807L519.607 170.568L525.883 161.568L535.929 157.503L537.195 149.776L548.658 130.777L565.488 136.173L570.62 119.286L593.698 230.061L610.151 207.909L631.832 206.36L657.813 222.082L667.906 160.753L680.568 164.206L686.527 156.998L689.884 159.3L696.183 158.598L699.782 161.699L709.781 163.722L709.959 170.584L721.911 174.934L736.845 173.971L737.63 162.485L726.376 87.312L752.602 118.131L765.725 128.487L798.56 107.311L817.089 122.368H823.018H829.705L837.84 131.812L847.721 142.438L900.501 146.22L908.984 130.777L944.556 174.801L965.032 136.173L986.07 149.73L1005.93 132.681L1027.9 146.22L1044.5 155.053L1053.83 152.353L1064.12 145.246L1074 136.173V245H158.606H76Z" fill="url(#paint0_linear_144_77)"/>
<path d="M76 246L82.383 223.573L104.525 222.643L120.003 214.525L136.184 214.079L147.975 202.142L158.346 171.109L165.132 160.006L182.751 183.166L197.191 186.69L207.758 179.967L220.311 149.862L257.061 210.422L272.111 184.539L289.366 197.531L298.666 177.723L300.481 168.22L314.487 158.515L321.721 145.326L329.716 163.749L328.393 175.845L335.768 177.635L341.49 172.25L356.404 50.6433L370.328 198.789L382.708 182.854V173.754L393.292 164.35L398.246 157.142L407.365 146.301L429.043 157.605L439.835 163.749L448.546 159.772L463.741 177.648L485.843 142.514L492.309 161.673L506.168 174.928L519.602 170.683L525.876 161.671L535.921 157.6L537.187 149.862L548.648 130.837L565.475 136.24L570.702 121.165L593.68 230.257L610.13 208.075L631.808 206.523L657.785 222.267L667.876 160.855L680.536 164.311L686.494 157.094L689.85 159.399L696.148 158.696L699.747 161.801L709.744 163.827L709.922 170.698L721.872 175.055L736.804 174.091L737.589 162.588L726.376 87.312L752.558 118.174L765.679 128.543L798.509 107.339L816.766 122.417H829.376L847.64 142.514L872.418 146.301H900.141L908.621 130.837L928.047 155.026L944.178 175.845L965.128 136.24C965.128 136.24 984.302 150.894 986.504 149.862C988.706 148.83 1007.03 132.649 1007.03 132.649L1024.8 145.326L1046.04 157.142L1063.69 146.301L1072 136.24H1069.61H1070.89" stroke="#184C99" stroke-width="1.5"/>
<path fill-rule="evenodd" clip-rule="evenodd" d="M356 50C358.209 50 360 48.2091 360 46C360 43.7909 358.209 42 356 42C353.791 42 352 43.7909 352 46C352 48.2091 353.791 50 356 50Z" fill="#184C99"/>
<path fill-rule="evenodd" clip-rule="evenodd" d="M322 149C324.209 149 326 147.209 326 145C326 142.791 324.209 141 322 141C319.791 141 318 142.791 318 145C318 147.209 319.791 149 322 149Z" fill="#184C99"/>
<path fill-rule="evenodd" clip-rule="evenodd" d="M257 213C259.209 213 261 211.209 261 209C261 206.791 259.209 205 257 205C254.791 205 253 206.791 253 209C253 211.209 254.791 213 257 213Z" fill="#184C99"/>
<path fill-rule="evenodd" clip-rule="evenodd" d="M221 153C223.209 153 225 151.209 225 149C225 146.791 223.209 145 221 145C218.791 145 217 146.791 217 149C217 151.209 218.791 153 221 153Z" fill="#184C99"/>
<path fill-rule="evenodd" clip-rule="evenodd" d="M165 162C167.209 162 169 160.209 169 158C169 155.791 167.209 154 165 154C162.791 154 161 155.791 161 158C161 160.209 162.791 162 165 162Z" fill="#184C99"/>
<path fill-rule="evenodd" clip-rule="evenodd" d="M135 217C137.209 217 139 215.209 139 213C139 210.791 137.209 209 135 209C132.791 209 131 210.791 131 213C131 215.209 132.791 217 135 217Z" fill="#184C99"/>
<path fill-rule="evenodd" clip-rule="evenodd" d="M77 247C79.2091 247 81 245.209 81 243C81 240.791 79.2091 239 77 239C74.7909 239 73 240.791 73 243C73 245.209 74.7909 247 77 247Z" fill="#184C99"/>
<path fill-rule="evenodd" clip-rule="evenodd" d="M407 150C409.209 150 411 148.209 411 146C411 143.791 409.209 142 407 142C404.791 142 403 143.791 403 146C403 148.209 404.791 150 407 150Z" fill="#184C99"/>
<path fill-rule="evenodd" clip-rule="evenodd" d="M486 144C488.209 144 490 142.209 490 140C490 137.791 488.209 136 486 136C483.791 136 482 137.791 482 140C482 142.209 483.791 144 486 144Z" fill="#184C99"/>
<path fill-rule="evenodd" clip-rule="evenodd" d="M571 123C573.209 123 575 121.209 575 119C575 116.791 573.209 115 571 115C568.791 115 567 116.791 567 119C567 121.209 568.791 123 571 123Z" fill="#184C99"/>
<path fill-rule="evenodd" clip-rule="evenodd" d="M593 233C595.209 233 597 231.209 597 229C597 226.791 595.209 225 593 225C590.791 225 589 226.791 589 229C589 231.209 590.791 233 593 233Z" fill="#184C99"/>
<path fill-rule="evenodd" clip-rule="evenodd" d="M658 225C660.209 225 662 223.209 662 221C662 218.791 660.209 217 658 217C655.791 217 654 218.791 654 221C654 223.209 655.791 225 658 225Z" fill="#184C99"/>
<path fill-rule="evenodd" clip-rule="evenodd" d="M727 91C729.209 91 731 89.2091 731 87C731 84.7909 729.209 83 727 83C724.791 83 723 84.7909 723 87C723 89.2091 724.791 91 727 91Z" fill="#184C99"/>
<path fill-rule="evenodd" clip-rule="evenodd" d="M736 176C738.209 176 740 174.209 740 172C740 169.791 738.209 168 736 168C733.791 168 732 169.791 732 172C732 174.209 733.791 176 736 176Z" fill="#184C99"/>
<path fill-rule="evenodd" clip-rule="evenodd" d="M765 131C767.209 131 769 129.209 769 127C769 124.791 767.209 123 765 123C762.791 123 761 124.791 761 127C761 129.209 762.791 131 765 131Z" fill="#184C99"/>
<path fill-rule="evenodd" clip-rule="evenodd" d="M797 111C799.209 111 801 109.209 801 107C801 104.791 799.209 103 797 103C794.791 103 793 104.791 793 107C793 109.209 794.791 111 797 111Z" fill="#184C99"/>
<path fill-rule="evenodd" clip-rule="evenodd" d="M909 134C911.209 134 913 132.209 913 130C913 127.791 911.209 126 909 126C906.791 126 905 127.791 905 130C905 132.209 906.791 134 909 134Z" fill="#184C99"/>
<path fill-rule="evenodd" clip-rule="evenodd" d="M944 180C946.209 180 948 178.209 948 176C948 173.791 946.209 172 944 172C941.791 172 940 173.791 940 176C940 178.209 941.791 180 944 180Z" fill="#184C99"/>
<path fill-rule="evenodd" clip-rule="evenodd" d="M965 139C967.209 139 969 137.209 969 135C969 132.791 967.209 131 965 131C962.791 131 961 132.791 961 135C961 137.209 962.791 139 965 139Z" fill="#184C99"/>
<path fill-rule="evenodd" clip-rule="evenodd" d="M1007 137C1009.21 137 1011 135.209 1011 133C1011 130.791 1009.21 129 1007 129C1004.79 129 1003 130.791 1003 133C1003 135.209 1004.79 137 1007 137Z" fill="#184C99"/>
<defs>
<linearGradient id="paint0_linear_144_77" x1="325.5" y1="147.822" x2="325.5" y2="245" gradientUnits="userSpaceOnUse">
<stop stop-color="#4379EE" stop-opacity="0.16"/>
<stop offset="1" stop-color="white" stop-opacity="0.176942"/>
</linearGradient>
</defs>
</svg>
