<svg width="40" height="40" viewBox="0 0 40 40" fill="none" xmlns="http://www.w3.org/2000/svg">
<g clip-path="url(#clip0_136_280)">
<path d="M39.3833 7.77789C38.6133 6.45455 37.1967 5.55566 35.5556 5.55566H20V7.77789H39.3833ZM0 27.7779H40V30.0001H0V27.7779ZM20 18.889H40V21.1112H20V18.889ZM20 14.4446H40V16.6668H20V14.4446ZM0 23.3334H40V25.5557H0V23.3334ZM4.44444 34.4446H35.5556C37.1967 34.4446 38.6133 33.5457 39.3833 32.2223H0.616667C1.38667 33.5457 2.80333 34.4446 4.44444 34.4446ZM20 10.0001H40V12.2223H20V10.0001Z" fill="#B22334"/>
<path d="M0.0755556 30.7545C0.0944445 30.8578 0.115556 30.9612 0.141111 31.0623C0.17 31.1745 0.205556 31.2823 0.243333 31.3912C0.342222 31.6789 0.462222 31.9567 0.613333 32.2167L0.616667 32.2223H39.3833L39.3856 32.2178C39.5347 31.9559 39.6582 31.6802 39.7544 31.3945C39.8276 31.186 39.8841 30.972 39.9233 30.7545C39.9689 30.5101 40 30.2589 40 30.0001H0C0 30.2589 0.0311111 30.5089 0.0755556 30.7545ZM0 25.5556H40V27.7778H0V25.5556ZM0 21.1112V23.3334H40V21.1112H20H0ZM20 16.6667H40V18.8889H20V16.6667ZM20 12.2223H40V14.4445H20V12.2223ZM0.142222 8.93783C0.17 8.8245 0.208889 8.71672 0.244444 8.60783C0.205859 8.71638 0.171756 8.82648 0.142222 8.93783ZM20 10.0001H40C40 9.74117 39.9689 9.49005 39.9233 9.2445C39.8844 9.02684 39.8276 8.81278 39.7533 8.6045C39.657 8.31762 39.5331 8.04077 39.3833 7.77783H20V10.0001Z" fill="#EEEEEE"/>
<path d="M20 5.55566H4.44444C3.2657 5.55566 2.13524 6.02392 1.30175 6.85741C0.468253 7.69091 0 8.82137 0 10.0001L0 21.1112H20V5.55566Z" fill="#3C3B6E"/>
<path d="M2.22339 8.5845L2.91006 9.08339L2.64783 9.88894L3.33339 9.39117L4.02006 9.88894L3.75783 9.08339L4.4445 8.5845H3.59561L3.33339 7.77783L3.07228 8.5845H2.22339ZM4.44561 10.8067L5.13228 11.3056L4.87006 12.1112L5.55561 11.6134L6.24228 12.1112L5.98006 11.3056L6.66672 10.8067H5.81783L5.55561 10.0001L5.2945 10.8067H4.44561ZM8.89006 10.8067L9.57672 11.3056L9.3145 12.1112L10.0001 11.6134L10.6867 12.1112L10.4245 11.3056L11.1112 10.8067H10.2623L10.0001 10.0001L9.73895 10.8067H8.89006ZM13.3345 10.8067L14.0212 11.3056L13.7589 12.1112L14.4445 11.6134L15.1312 12.1112L14.8689 11.3056L15.5556 10.8067H14.7067L14.4445 10.0001L14.1834 10.8067H13.3345ZM4.44561 15.2512L5.13228 15.7501L4.87006 16.5556L5.55561 16.0578L6.24228 16.5556L5.98006 15.7501L6.66672 15.2512H5.81783L5.55561 14.4445L5.2945 15.2512H4.44561ZM8.89006 15.2512L9.57672 15.7501L9.3145 16.5556L10.0001 16.0578L10.6867 16.5556L10.4245 15.7501L11.1112 15.2512H10.2623L10.0001 14.4445L9.73895 15.2512H8.89006ZM13.3345 15.2512L14.0212 15.7501L13.7589 16.5556L14.4445 16.0578L15.1312 16.5556L14.8689 15.7501L15.5556 15.2512H14.7067L14.4445 14.4445L14.1834 15.2512H13.3345ZM6.66783 8.5845L7.3545 9.08339L7.09228 9.88894L7.77783 9.39117L8.4645 9.88894L8.20228 9.08339L8.88894 8.5845H8.04006L7.77783 7.77783L7.51672 8.5845H6.66783ZM11.1123 8.5845L11.7989 9.08339L11.5367 9.88894L12.2223 9.39117L12.9089 9.88894L12.6467 9.08339L13.3334 8.5845H12.4845L12.2223 7.77783L11.9612 8.5845H11.1123ZM15.5567 8.5845L16.2434 9.08339L15.9812 9.88894L16.6667 9.39117L17.3534 9.88894L17.0912 9.08339L17.7778 8.5845H16.9289L16.6667 7.77783L16.4056 8.5845H15.5567ZM2.22339 13.0289L2.91006 13.5278L2.64783 14.3334L3.33339 13.8356L4.02006 14.3334L3.75783 13.5278L4.4445 13.0289H3.59561L3.33339 12.2223L3.07228 13.0289H2.22339ZM7.09228 14.3334L7.77783 13.8356L8.4645 14.3334L8.20228 13.5278L8.88894 13.0289H8.04006L7.77783 12.2223L7.51672 13.0289H6.66783L7.3545 13.5278L7.09228 14.3334ZM11.1123 13.0289L11.7989 13.5278L11.5367 14.3334L12.2223 13.8356L12.9089 14.3334L12.6467 13.5278L13.3334 13.0289H12.4845L12.2223 12.2223L11.9612 13.0289H11.1123ZM15.5567 13.0289L16.2434 13.5278L15.9812 14.3334L16.6667 13.8356L17.3534 14.3334L17.0912 13.5278L17.7778 13.0289H16.9289L16.6667 12.2223L16.4056 13.0289H15.5567ZM2.22339 17.4734L2.91006 17.9723L2.64783 18.7778L3.33339 18.2801L4.02006 18.7778L3.75783 17.9723L4.4445 17.4734H3.59561L3.33339 16.6667L3.07228 17.4734H2.22339ZM7.09228 18.7778L7.77783 18.2801L8.4645 18.7778L8.20228 17.9723L8.88894 17.4734H8.04006L7.77783 16.6667L7.51672 17.4734H6.66783L7.3545 17.9723L7.09228 18.7778ZM11.1123 17.4734L11.7989 17.9723L11.5367 18.7778L12.2223 18.2801L12.9089 18.7778L12.6467 17.9723L13.3334 17.4734H12.4845L12.2223 16.6667L11.9612 17.4734H11.1123ZM15.5567 17.4734L16.2434 17.9723L15.9812 18.7778L16.6667 18.2801L17.3534 18.7778L17.0912 17.9723L17.7778 17.4734H16.9289L16.6667 16.6667L16.4056 17.4734H15.5567Z" fill="white"/>
</g>
<defs>
<clipPath id="clip0_136_280">
<rect width="40" height="40" fill="white"/>
</clipPath>
</defs>
</svg>
