<svg width="32" height="32" viewBox="0 0 32 32" fill="none" xmlns="http://www.w3.org/2000/svg">
<g clip-path="url(#clip0_30_4)">
<path d="M30.7258 9.54667L28.9481 6.47111C28.7101 6.06325 28.3211 5.76553 27.8653 5.64241C27.4094 5.5193 26.9234 5.5807 26.5125 5.81333L19.5436 9.84889V1.77778C19.5436 0.8 18.7436 0 17.7658 0H14.2103C13.2325 0 12.4325 0.8 12.4325 1.77778V9.84889L5.44583 5.81333C5.24516 5.69618 5.02334 5.6198 4.79309 5.58856C4.56283 5.55733 4.32868 5.57186 4.10405 5.63132C3.87943 5.69078 3.66875 5.794 3.48411 5.93506C3.29946 6.07612 3.14448 6.25225 3.02805 6.45333L1.25027 9.52889C0.752495 10.3822 1.03694 11.4844 1.89027 11.9644L8.87694 16L1.89027 20.0356C1.03694 20.5333 0.752495 21.6178 1.23249 22.4711L3.01027 25.5467C3.50805 26.4 4.5925 26.6844 5.44583 26.2044L12.4325 22.1511V30.2222C12.4325 31.2 13.2325 32 14.2103 32H17.7658C18.7436 32 19.5436 31.2 19.5436 30.2222V22.1511L26.5303 26.1867C27.3836 26.6844 28.468 26.3822 28.9658 25.5289L30.7436 22.4533C31.2414 21.6 30.9392 20.5156 30.0858 20.0178L23.0992 16L30.0858 11.9644C30.9392 11.4844 31.2236 10.3822 30.7258 9.54667Z" fill="white"/>
</g>
<defs>
<clipPath id="clip0_30_4">
<rect width="32" height="32" fill="white"/>
</clipPath>
</defs>
</svg>
