<svg width="23" height="23" viewBox="0 0 23 23" fill="none" xmlns="http://www.w3.org/2000/svg">
<path d="M6.49773 13.1377L5.13105 19.0557C5.08873 19.2349 5.10144 19.4227 5.16751 19.5945C5.23358 19.7664 5.34994 19.9143 5.5014 20.0191C5.65286 20.1238 5.83238 20.1804 6.01651 20.1814C6.20063 20.1825 6.38081 20.1281 6.5335 20.0252L11.5278 16.6956L16.5222 20.0252C16.6784 20.1289 16.8627 20.1823 17.0502 20.1782C17.2377 20.1741 17.4194 20.1127 17.5709 20.0022C17.7225 19.8917 17.8366 19.7375 17.8978 19.5602C17.9591 19.383 17.9646 19.1912 17.9136 19.0107L16.236 13.1404L20.3966 9.39628C20.5298 9.27629 20.625 9.11988 20.6703 8.94638C20.7156 8.77289 20.7091 8.58992 20.6515 8.4201C20.5939 8.25029 20.4878 8.10107 20.3463 7.99091C20.2048 7.88075 20.0342 7.81448 19.8554 7.80029L14.6263 7.38386L12.3634 2.37485C12.2913 2.21356 12.174 2.0766 12.0257 1.98049C11.8775 1.88439 11.7045 1.83325 11.5278 1.83325C11.3511 1.83325 11.1782 1.88439 11.03 1.98049C10.8817 2.0766 10.7644 2.21356 10.6922 2.37485L8.42942 7.38386L3.20027 7.79937C3.02458 7.81329 2.85662 7.87753 2.71648 7.98441C2.57634 8.09128 2.46996 8.23627 2.41007 8.40202C2.35017 8.56777 2.3393 8.74727 2.37875 8.91904C2.4182 9.09081 2.50629 9.24758 2.63251 9.37059L6.49773 13.1377ZM9.1146 9.16972C9.27832 9.15682 9.43556 9.10012 9.56982 9.00555C9.70409 8.91098 9.81045 8.78203 9.87774 8.63222L11.5278 4.98071L13.1779 8.63222C13.2452 8.78203 13.3516 8.91098 13.4859 9.00555C13.6201 9.10012 13.7774 9.15682 13.9411 9.16972L17.5843 9.45865L14.5841 12.159C14.3236 12.3938 14.2199 12.7552 14.3153 13.0927L15.4646 17.1148L12.0378 14.83C11.8874 14.729 11.7104 14.6751 11.5292 14.6751C11.3481 14.6751 11.171 14.729 11.0206 14.83L7.43973 17.2175L8.40282 13.0478C8.43814 12.8944 8.4334 12.7346 8.38906 12.5836C8.34473 12.4326 8.26229 12.2955 8.14967 12.1856L5.36311 9.46874L9.1146 9.16972Z" fill="#F3CD03"/>
</svg>
