<svg width="73" height="72" viewBox="0 0 73 72" fill="none" xmlns="http://www.w3.org/2000/svg">
<path d="M67.22 33.9899C66.7201 26.0162 63.1206 18.5544 57.191 13.1999C51.2484 7.83397 43.4519 4.98948 35.45 5.26794C27.4477 5.54082 19.8657 8.91706 14.309 14.6819C8.76644 20.4327 5.69439 28.1242 5.75 36.1109V36.8009C5.783 38.2529 5.924 39.7019 6.17 41.1329C7.4206 48.6044 11.3968 55.3469 17.33 60.0569C23.2736 64.7787 30.7495 67.1432 38.3273 66.6982C45.9052 66.2532 53.0529 63.0299 58.403 57.6449C63.7389 52.2714 66.8913 45.1092 67.25 37.5449V36.1409C67.25 35.6609 67.25 34.6769 67.22 33.9899ZM62.63 38.7719H53.204L45.098 52.2839C44.8285 52.7255 44.4492 53.0897 43.997 53.341C43.5448 53.5923 43.0353 53.7222 42.518 53.7179H42.338C41.7877 53.6881 41.2562 53.5078 40.8013 53.1968C40.3464 52.8857 39.9855 52.4559 39.758 51.9539L30.122 30.3119L24.122 40.3259C23.8521 40.7681 23.4724 41.1328 23.0198 41.3846C22.5671 41.6365 22.057 41.7668 21.539 41.7629H10.91C10.4863 39.9089 10.275 38.0127 10.28 36.1109V35.7809H19.826L27.956 22.3019C28.2411 21.8328 28.6495 21.451 29.1367 21.1981C29.624 20.9452 30.1713 20.831 30.719 20.8679C31.2641 20.9028 31.7895 21.0854 32.2387 21.3962C32.6879 21.707 33.0441 22.1341 33.269 22.6319L42.935 44.2739L48.938 34.2599C49.2037 33.8125 49.5813 33.4419 50.0337 33.1847C50.486 32.9274 50.9976 32.7924 51.518 32.7929H62.564C62.714 33.8939 62.783 35.0039 62.774 36.1109C62.7839 37.0003 62.7338 37.8893 62.624 38.7719" fill="#40BB15"/>
</svg>
