<svg width="32" height="32" viewBox="0 0 32 32" fill="none" xmlns="http://www.w3.org/2000/svg">
<g clip-path="url(#clip0_30_6)">
<path fill-rule="evenodd" clip-rule="evenodd" d="M3.55595 14.2319C3.55595 12.8302 3.83204 11.4422 4.36846 10.1472C4.90487 8.85217 5.69111 7.67548 6.68228 6.68431C7.67345 5.69314 8.85013 4.90691 10.1452 4.37049C11.4402 3.83407 12.8282 3.55798 14.2299 3.55798C15.6316 3.55798 17.0196 3.83407 18.3146 4.37049C19.6097 4.90691 20.7864 5.69314 21.7775 6.68431C22.7687 7.67548 23.5549 8.85217 24.0913 10.1472C24.6278 11.4422 24.9039 12.8302 24.9039 14.2319C24.9039 17.0628 23.7793 19.7778 21.7775 21.7796C19.7758 23.7813 17.0608 24.9059 14.2299 24.9059C11.399 24.9059 8.68403 23.7813 6.68228 21.7796C4.68052 19.7778 3.55595 17.0628 3.55595 14.2319ZM14.2299 8.79112e-08C11.965 0.000324357 9.73287 0.541202 7.71904 1.57768C5.70521 2.61416 3.96784 4.11631 2.6513 5.95928C1.33477 7.80225 0.477107 9.93282 0.149589 12.1739C-0.177929 14.415 0.0341581 16.7019 0.768225 18.8446C1.50229 20.9872 2.73714 22.9237 4.37014 24.4932C6.00313 26.0626 7.98712 27.2196 10.1572 27.8681C12.3273 28.5166 14.6208 28.6377 16.8472 28.2215C19.0735 27.8053 21.1684 26.8638 22.9576 25.4752L28.9831 31.5006C29.3186 31.8247 29.768 32.004 30.2344 31.9999C30.7009 31.9959 31.1471 31.8088 31.4769 31.4789C31.8067 31.1491 31.9938 30.7029 31.9979 30.2365C32.0019 29.77 31.8226 29.3206 31.4986 28.9851L25.4731 22.9597C27.1064 20.8559 28.1166 18.3361 28.3889 15.6867C28.6611 13.0374 28.1845 10.3647 27.0132 7.97281C25.8419 5.58088 24.0229 3.56562 21.763 2.15618C19.5032 0.746748 16.8932 -0.000295883 14.2299 8.79112e-08ZM14.2299 21.3479C16.1172 21.3479 17.9271 20.5982 19.2617 19.2637C20.5962 17.9292 21.3459 16.1192 21.3459 14.2319C21.3459 12.3447 20.5962 10.5347 19.2617 9.20019C17.9271 7.86568 16.1172 7.11597 14.2299 7.11597C12.3426 7.11597 10.5327 7.86568 9.19815 9.20019C7.86365 10.5347 7.11393 12.3447 7.11393 14.2319C7.11393 16.1192 7.86365 17.9292 9.19815 19.2637C10.5327 20.5982 12.3426 21.3479 14.2299 21.3479Z" fill="white"/>
</g>
<defs>
<clipPath id="clip0_30_6">
<rect width="32" height="32" fill="white"/>
</clipPath>
</defs>
</svg>
