<svg width="73" height="72" viewBox="0 0 73 72" fill="none" xmlns="http://www.w3.org/2000/svg">
<path d="M17.1818 59.5227V53.9318H21.6545L27.1756 35.5517C27.5483 34.3403 28.236 33.374 29.2386 32.6528C30.2412 31.9316 31.3473 31.57 32.5568 31.5682H40.9432C42.1545 31.5682 43.2615 31.9297 44.2642 32.6528C45.2668 33.3759 45.9536 34.3422 46.3244 35.5517L51.8455 53.9318H56.3182V59.5227H17.1818ZM33.9545 25.9773V12H39.5455V25.9773H33.9545ZM50.5875 32.896L46.604 28.9125L56.5278 19.0585L60.4415 22.9722L50.5875 32.896ZM53.5227 45.5455V39.9545H67.5V45.5455H53.5227ZM22.9125 32.896L13.0585 22.9722L16.9722 19.0585L26.896 28.9125L22.9125 32.896ZM6 45.5455V39.9545H19.9773V45.5455H6Z" fill="#23A6F0"/>
</svg>
