<svg width="73" height="72" viewBox="0 0 73 72" fill="none" xmlns="http://www.w3.org/2000/svg">
<path fill-rule="evenodd" clip-rule="evenodd" d="M26.2916 15.327C26.2916 12.5881 27.3796 9.96139 29.3163 8.0247C31.253 6.08802 33.8797 5 36.6186 5C39.3575 5 41.9842 6.08802 43.9208 8.0247C45.8575 9.96139 46.9455 12.5881 46.9455 15.327C46.9455 18.0659 45.8575 20.6926 43.9208 22.6293C41.9842 24.5659 39.3575 25.654 36.6186 25.654C33.8797 25.654 31.253 24.5659 29.3163 22.6293C27.3796 20.6926 26.2916 18.0659 26.2916 15.327ZM16.3036 32.2427C18.4058 30.2471 21.1938 29.1345 24.0924 29.1345C26.9909 29.1345 29.7789 30.2471 31.8811 32.2427L31.9257 32.2873L36.6186 36.9802L41.3159 32.2873L41.3605 32.2427C43.4622 30.2497 46.2483 29.1387 49.1448 29.1387C52.0412 29.1387 54.8273 30.2497 56.929 32.2427C57.973 33.2328 58.8046 34.4249 59.3733 35.7465C59.9421 37.0681 60.236 38.4916 60.2372 39.9304C60.2385 41.3692 59.947 42.7932 59.3806 44.1158C58.8142 45.4384 57.9846 46.632 56.9424 47.6239L38.171 65.8689C37.7546 66.2736 37.1969 66.5 36.6163 66.5C36.0357 66.5 35.478 66.2736 35.0617 65.8689L16.2947 47.6239C15.2529 46.6323 14.4236 45.4393 13.8572 44.1173C13.2908 42.7952 12.9992 41.3718 13 39.9336C13.0008 38.4954 13.2941 37.0723 13.8621 35.7509C14.43 34.4296 15.2607 33.233 16.3036 32.2427Z" fill="#E74040"/>
</svg>
